<svg width="565" height="506" viewBox="0 0 565 506" fill="none" xmlns="http://www.w3.org/2000/svg">
<g clip-path="url(#clip0)">
<path d="M106.428 505.124C47.6495 505.124 0 497.994 0 489.199C0 480.405 47.6495 473.275 106.428 473.275C165.207 473.275 212.856 480.405 212.856 489.199C212.856 497.994 165.207 505.124 106.428 505.124Z" fill="#E6E6E6"/>
<path d="M565 0H0.636963V0.000457862C0.636962 124 49.8957 242.921 137.577 330.602C225.258 418.284 344.179 467.542 468.179 467.542H565V0Z" fill="#182B3F"/>
<path d="M149.143 159.441C123.855 159.441 103.355 138.941 103.355 113.653C103.355 88.3647 123.855 67.8647 149.143 67.8647C174.431 67.8647 194.931 88.3647 194.931 113.653C194.931 138.941 174.431 159.441 149.143 159.441Z" fill="#F2F2F2"/>
<path d="M289.777 24.6932C287.61 24.6932 285.853 22.9361 285.853 20.7686C285.853 18.601 287.61 16.8439 289.777 16.8439C291.945 16.8439 293.702 18.601 293.702 20.7686C293.702 22.9361 291.945 24.6932 289.777 24.6932Z" fill="#FF6584"/>
<path d="M162.225 287.647C160.057 287.647 158.3 285.89 158.3 283.723C158.3 281.555 160.057 279.798 162.225 279.798C164.392 279.798 166.149 281.555 166.149 283.723C166.149 285.89 164.392 287.647 162.225 287.647Z" fill="#FF6584"/>
<path d="M149.143 24.6932C146.975 24.6932 145.218 22.9361 145.218 20.7686C145.218 18.601 146.975 16.8439 149.143 16.8439C151.31 16.8439 153.067 18.601 153.067 20.7686C153.067 22.9361 151.31 24.6932 149.143 24.6932Z" fill="#F2F2F2"/>
<path d="M94.1976 213.732C92.0301 213.732 90.2729 211.975 90.2729 209.808C90.2729 207.64 92.0301 205.883 94.1976 205.883C96.3652 205.883 98.1223 207.64 98.1223 209.808C98.1223 211.975 96.3652 213.732 94.1976 213.732Z" fill="#F2F2F2"/>
<path d="M250.531 130.66C248.363 130.66 246.606 128.903 246.606 126.735C246.606 124.568 248.363 122.81 250.531 122.81C252.698 122.81 254.455 124.568 254.455 126.735C254.455 128.903 252.698 130.66 250.531 130.66Z" fill="#F2F2F2"/>
<path d="M457.885 104.495C455.717 104.495 453.96 102.738 453.96 100.571C453.96 98.403 455.717 96.6459 457.885 96.6459C460.052 96.6459 461.81 98.403 461.81 100.571C461.81 102.738 460.052 104.495 457.885 104.495Z" fill="#F2F2F2"/>
<path d="M383.97 396.884C310.273 396.884 250.53 337.142 250.53 263.445C250.53 189.749 310.273 130.006 383.97 130.006C457.666 130.006 517.409 189.749 517.409 263.445C517.409 337.142 457.666 396.884 383.97 396.884Z" fill="#0B5FAB"/>
<path opacity="0.2" d="M389.857 228.777C379.019 228.777 370.234 219.991 370.234 209.154C370.234 198.316 379.019 189.53 389.857 189.53C400.695 189.53 409.48 198.316 409.48 209.154C409.48 219.991 400.695 228.777 389.857 228.777Z" fill="black"/>
<path opacity="0.2" d="M389.857 374.645C371.071 374.645 355.843 359.416 355.843 340.631C355.843 321.845 371.071 306.617 389.857 306.617C408.642 306.617 423.871 321.845 423.871 340.631C423.871 359.416 408.642 374.645 389.857 374.645Z" fill="black"/>
<path opacity="0.2" d="M488.628 297.459C483.932 297.459 480.125 293.652 480.125 288.956C480.125 284.259 483.932 280.452 488.628 280.452C493.324 280.452 497.132 284.259 497.132 288.956C497.132 293.652 493.324 297.459 488.628 297.459Z" fill="black"/>
<path opacity="0.2" d="M153.126 94.5551C150.63 94.5551 148.606 92.5312 148.606 90.0347C148.606 87.5381 150.63 85.5143 153.126 85.5143C155.623 85.5143 157.646 87.5381 157.646 90.0347C157.646 92.5312 155.623 94.5551 153.126 94.5551Z" fill="black"/>
<path opacity="0.2" d="M344.781 184.169C342.285 184.169 340.261 182.145 340.261 179.648C340.261 177.152 342.285 175.128 344.781 175.128C347.278 175.128 349.302 177.152 349.302 179.648C349.302 182.145 347.278 184.169 344.781 184.169Z" fill="black"/>
<path opacity="0.2" d="M395.744 275.219C392.493 275.219 389.857 272.583 389.857 269.332C389.857 266.081 392.493 263.445 395.744 263.445C398.995 263.445 401.631 266.081 401.631 269.332C401.631 272.583 398.995 275.219 395.744 275.219Z" fill="black"/>
<path opacity="0.2" d="M164.129 130.671C161.633 130.671 159.609 128.648 159.609 126.151C159.609 123.655 161.633 121.631 164.129 121.631C166.626 121.631 168.65 123.655 168.65 126.151C168.65 128.648 166.626 130.671 164.129 130.671Z" fill="black"/>
<path opacity="0.2" d="M285.794 241.871C283.298 241.871 281.274 239.847 281.274 237.35C281.274 234.854 283.298 232.83 285.794 232.83C288.291 232.83 290.315 234.854 290.315 237.35C290.315 239.847 288.291 241.871 285.794 241.871Z" fill="black"/>
<path opacity="0.2" d="M123.62 128.417C120.014 128.417 117.091 125.494 117.091 121.888C117.091 118.281 120.014 115.358 123.62 115.358C127.227 115.358 130.15 118.281 130.15 121.888C130.15 125.494 127.227 128.417 123.62 128.417Z" fill="black"/>
<path opacity="0.2" d="M323.126 289.983C319.519 289.983 316.596 287.06 316.596 283.454C316.596 279.848 319.519 276.924 323.126 276.924C326.732 276.924 329.655 279.848 329.655 283.454C329.655 287.06 326.732 289.983 323.126 289.983Z" fill="black"/>
<path opacity="0.2" d="M466.389 217.657C461.692 217.657 457.885 213.85 457.885 209.154C457.885 204.457 461.692 200.65 466.389 200.65C471.085 200.65 474.892 204.457 474.892 209.154C474.892 213.85 471.085 217.657 466.389 217.657Z" fill="black"/>
<path d="M355.059 340.362C369.092 340.343 383.113 339.533 397.054 337.935C438.987 333.173 477.661 321.92 505.952 306.25C534.588 290.388 549.242 271.814 547.213 253.951C545.808 241.576 533.846 230.499 510.645 220.088C510.328 219.946 509.968 219.936 509.644 220.06C509.32 220.183 509.058 220.43 508.916 220.747C508.774 221.063 508.763 221.423 508.887 221.748C509.01 222.072 509.257 222.334 509.573 222.476C531.86 232.475 543.321 242.867 544.613 254.247C546.515 270.99 532.334 288.645 504.684 303.961C476.687 319.469 438.359 330.611 396.759 335.335C355.16 340.059 315.309 337.796 284.548 328.961C254.167 320.235 236.388 306.21 234.487 289.467C233.201 278.14 239.44 266.13 252.53 254.735C252.789 254.506 252.948 254.184 252.971 253.839C252.994 253.494 252.879 253.154 252.652 252.893C252.425 252.632 252.104 252.472 251.759 252.447C251.414 252.422 251.073 252.535 250.811 252.761C237.043 264.747 230.499 277.542 231.887 289.762C233.916 307.625 252.361 322.439 283.826 331.476C304.312 337.359 328.764 340.362 355.059 340.362Z" fill="white"/>
<path d="M157.243 456.544L149.826 459.326L148.899 467.67L157.243 466.743V456.544Z" fill="#FFB8B8"/>
<path d="M55.2571 456.544L62.674 459.326L63.6015 467.67L55.2571 466.743V456.544Z" fill="#FFB8B8"/>
<path d="M150.753 279.459L154.462 374.955C154.462 374.955 166.515 446.346 163.733 448.2C160.952 450.054 163.733 460.253 163.733 460.253L147.972 462.107C147.972 462.107 147.972 454.69 144.263 451.909C140.555 449.127 106.25 318.399 106.25 318.399L71.0185 444.491C71.0185 444.491 71.9456 451.909 69.1642 451.909C66.3828 451.909 65.4556 462.107 65.4556 462.107H49.694V451.909C49.694 451.909 45.0582 450.982 47.8397 443.564C50.6212 436.147 60.8198 279.459 60.8198 279.459H150.753Z" fill="#2F2E41"/>
<path d="M155.389 459.326C155.389 459.326 160.025 456.544 161.879 458.399C163.733 460.253 178.568 478.796 178.568 478.796C178.568 478.796 198.965 491.776 180.422 495.485C161.879 499.193 147.972 481.577 147.044 479.723C146.117 477.869 147.972 463.034 148.899 464.889C149.826 466.743 152.607 465.816 153.534 464.889C154.462 463.962 155.389 459.326 155.389 459.326Z" fill="#2F2E41"/>
<path d="M57.1115 459.326C57.1115 459.326 52.4757 456.544 50.6214 458.399C48.7671 460.253 33.9327 478.796 33.9327 478.796C33.9327 478.796 13.5354 491.776 32.0784 495.485C50.6214 499.193 64.5286 481.577 65.4558 479.723C66.383 477.869 64.5287 463.034 63.6015 464.889C62.6744 466.743 59.8929 465.816 58.9658 464.889C58.0386 463.962 57.1115 459.326 57.1115 459.326Z" fill="#2F2E41"/>
<path d="M94.6609 142.241C84.1638 142.241 75.6543 133.731 75.6543 123.234C75.6543 112.737 84.1638 104.227 94.6609 104.227C105.158 104.227 113.667 112.737 113.667 123.234C113.667 133.731 105.158 142.241 94.6609 142.241Z" fill="#FFB8B8"/>
<path d="M82.1445 132.969L107.178 133.896L109.959 162.638L87.7079 167.274L82.1445 132.969Z" fill="#FFB8B8"/>
<path d="M83.9989 156.148C83.9989 156.148 89.5619 168.201 109.959 155.221L147.972 279.459C147.972 279.459 96.979 310.055 64.5288 286.876L75.6546 161.711L83.9989 156.148Z" fill="#575A89"/>
<path d="M106.25 142.24L123.866 139.459L125.72 151.512C125.72 151.512 149.826 154.293 152.607 163.565L149.826 232.174C149.826 232.174 158.17 247.008 150.753 256.28C150.753 256.28 162.806 281.313 153.535 285.949C153.535 285.949 132.21 275.75 119.23 278.532C119.23 278.532 111.813 276.677 111.813 271.114C111.813 265.551 106.25 142.24 106.25 142.24Z" fill="#2F2E41"/>
<path d="M84.9257 144.095L74.7271 146.876L73.7999 159.856C73.7999 159.856 48.7668 175.618 47.8397 184.889C46.9125 194.161 66.3827 238.664 66.3827 238.664C66.3827 238.664 58.9655 251.644 61.747 259.989C61.747 259.989 49.694 284.094 57.1112 290.584C57.1112 290.584 71.0184 294.293 72.8728 288.73C74.727 283.167 91.4158 219.194 83.9986 188.598C83.9986 188.598 91.4158 149.658 84.9257 144.095Z" fill="#2F2E41"/>
<path d="M74.2632 174.289H74.6121V164.729C74.6121 164.002 74.7553 163.283 75.0333 162.612C75.3114 161.94 75.7189 161.33 76.2327 160.817C76.7465 160.303 77.3565 159.895 78.0278 159.617C78.6991 159.339 79.4186 159.196 80.1452 159.196H100.399C101.126 159.196 101.845 159.339 102.517 159.617C103.188 159.895 103.798 160.303 104.312 160.817C104.826 161.33 105.233 161.94 105.511 162.612C105.789 163.283 105.932 164.002 105.932 164.729V217.176C105.932 217.902 105.789 218.622 105.511 219.293C105.233 219.964 104.826 220.574 104.312 221.088C103.798 221.602 103.188 222.01 102.517 222.288C101.845 222.566 101.126 222.709 100.399 222.709H80.1452C79.4186 222.709 78.6991 222.566 78.0278 222.288C77.3565 222.01 76.7465 221.602 76.2327 221.088C75.7189 220.574 75.3114 219.964 75.0333 219.293C74.7553 218.622 74.6121 217.902 74.6121 217.176V181.094H74.2632V174.289Z" fill="white"/>
<path d="M65.4561 211.777C65.4561 211.777 72.8733 187.671 83.9991 195.088C95.1249 202.505 76.5819 222.903 76.5819 222.903L65.4561 211.777Z" fill="#FFB8B8"/>
<path d="M116.449 194.161C116.449 194.161 103.469 178.399 96.9788 185.817C90.4887 193.234 108.105 209.922 108.105 209.922L116.449 194.161Z" fill="#FFB8B8"/>
<path d="M149.826 162.638C149.826 162.638 154.462 161.711 157.243 170.055C160.025 178.399 170.224 209.923 170.224 215.485C170.224 221.048 166.515 243.3 146.118 239.591C125.72 235.883 101.615 209.923 101.615 209.923L114.595 190.452L142.409 207.141L149.826 162.638Z" fill="#2F2E41"/>
<path opacity="0.1" d="M113.204 189.989L140.091 200.188L146.019 185.48L145.82 186.674L141.946 206.677L113.204 189.989Z" fill="black"/>
<path opacity="0.1" d="M60.356 209.459L58.5017 196.479L64.0645 206.677L60.356 209.459Z" fill="black"/>
<path opacity="0.1" d="M150.29 241.909C150.29 241.909 123.057 234.501 110.249 218.271C110.249 218.271 123.402 240.055 150.29 241.909Z" fill="black"/>
<path opacity="0.1" d="M81.6809 225.22C81.6809 225.22 75.9464 253.285 61.1978 254.087C61.1978 254.087 78.8994 259.525 81.6809 225.22Z" fill="black"/>
<path d="M51.5485 181.181C51.5485 181.181 48.7671 183.035 46.9128 191.38C45.0584 199.724 33.0055 231.247 37.6413 238.664C42.277 246.081 49.6942 262.77 65.4557 251.644L81.2173 222.903L65.4557 208.068L58.9657 212.704L51.5485 181.181Z" fill="#2F2E41"/>
<path d="M112.907 128.054C112.907 128.054 128.848 102.22 111.869 100.876C106.203 100.48 100.671 98.9726 95.5867 96.4398C89.9586 93.5759 82.8743 91.399 79.1043 95.8076C77.4592 97.8235 75.5411 99.6003 73.4056 101.087C70.094 103.283 66.2623 106.843 68.3841 110.663L71.8625 116.924L76.7323 129.446C75.5982 124.045 75.5697 119.51 78.4714 117.271C78.4714 117.271 94.661 124.161 102.82 111.706C111.953 104.853 114.859 126.423 112.907 128.054Z" fill="#2F2E41"/>
<path d="M90.0251 182.572C87.4649 182.572 85.3894 180.496 85.3894 177.936C85.3894 175.376 87.4649 173.3 90.0251 173.3C92.5854 173.3 94.6609 175.376 94.6609 177.936C94.6609 180.496 92.5854 182.572 90.0251 182.572Z" fill="#0B5FAB"/>
<path d="M184.508 493.338C188.423 491.45 187.897 488.185 182.939 483.596C180.569 481.403 175.137 475.437 170.866 470.338C164.712 462.989 162.93 459.926 162.277 455.566C161.823 452.542 161.988 449.045 162.642 447.797C164.028 445.156 162.387 429.509 156.979 393.799C154.156 375.159 153.225 364.054 152.642 342.069C152.234 326.672 151.553 307.349 151.129 299.13C150.442 285.827 150.568 284.267 152.277 284.923C154.584 285.808 156.818 282.18 156.818 277.549C156.818 275.782 155.444 270.243 153.764 265.239C151.493 258.474 151.025 255.552 151.938 253.845C152.614 252.583 153.166 248.835 153.166 245.516C153.166 240.203 153.507 239.397 156.019 238.766C159.686 237.846 165.089 232.434 167.064 227.703C171.211 217.767 170.4 212.143 160.375 181.28C154.482 163.139 151.086 159.003 139.025 155.278C134.612 153.915 129.95 152.8 128.665 152.8C126.116 152.8 123.954 148.519 123.954 143.472C123.954 140.411 123.901 140.395 116.347 141.24C112.163 141.708 108.328 142.475 107.825 142.944C107.322 143.413 107.274 153.006 107.717 164.261C108.481 183.636 108.684 184.916 111.518 188.284L114.512 191.842L108.887 200.301C105.794 204.954 103.262 209.147 103.262 209.621C103.262 210.094 104.769 212.05 106.61 213.967L109.957 217.452L111.175 245.333C112.584 277.58 112.503 277.36 123.083 277.679C130.414 277.9 143.429 280.566 143.429 281.847C143.429 282.657 133.768 287.185 125.78 290.119C109.861 295.965 88.1281 297.486 76.736 293.551C72.1974 291.983 70.6239 290.91 71.4132 289.92C73.0317 287.889 78.4849 264.135 81.2363 247.13C85.0816 223.365 85.0793 223.395 83.0138 223.395C81.2093 223.395 65.5304 210.312 65.5304 208.806C65.5304 208.383 67.4475 204.854 69.7905 200.963L74.0506 193.888V177.847C74.0506 166.994 74.523 161.334 75.5112 160.346C76.3145 159.543 79.327 158.885 82.2056 158.885C86.3898 158.885 87.4336 158.458 87.4104 156.755C87.3759 154.239 85.4255 145.511 84.7453 144.831C84.4854 144.571 82.2757 144.971 79.8348 145.721C75.6267 147.012 75.3552 147.416 74.5922 153.523C73.8131 159.759 73.5272 160.157 65.6034 166.049C55.3818 173.65 48.4901 181.183 48.4901 184.756C48.4901 186.261 46.2818 195.16 43.5828 204.531C40.8838 213.902 38.3426 224.963 37.9358 229.11C37.2498 236.103 37.4719 237.08 40.9941 242.569C47.0633 252.027 50.2636 254.452 56.5003 254.316C61.5103 254.208 61.8786 254.416 61.8737 257.359C61.8713 259.097 60.513 264.353 58.8564 269.039C54.7695 280.6 54.8197 290.339 58.9663 290.339C59.8989 290.339 60.6619 290.76 60.6619 291.273C60.6619 291.787 59.0087 315.476 56.9882 343.916C52.5607 406.233 50.0791 434.986 48.4365 443C47.6011 447.076 47.6079 449.393 48.4586 450.243C49.1459 450.93 49.7082 453.636 49.7082 456.256C49.7082 460.222 48.6518 462.273 43.4076 468.489C39.9423 472.596 34.4651 478.473 31.236 481.549C21.4001 490.917 24.3602 495.506 39.6331 494.569C46.072 494.173 48.2462 493.382 54.1417 489.29C64.0663 482.402 65.6827 479.794 64.7626 472.155C64.1349 466.943 63.6533 466.012 61.8327 466.488C60.4697 466.845 59.1431 466.103 58.2898 464.509C57.0246 462.145 57.2381 461.96 61.2284 461.96C65.1979 461.96 65.5312 461.677 65.5312 458.308C65.5312 456.28 66.6132 453.575 67.9656 452.222C69.3045 450.884 70.3965 448.556 70.3922 447.049C70.3827 443.883 104.48 320.679 105.796 319.125C106.793 317.947 106.532 317.061 121.481 372.324C136.343 427.267 141.896 445.736 145.386 451.831C146.988 454.628 148.298 457.956 148.298 459.227C148.298 461.103 148.987 461.437 151.95 461.002C154.014 460.699 155.601 461.018 155.601 461.735C155.601 463.778 151.772 467.021 150.112 466.383C148.068 465.599 146.539 476.929 148.255 480.136C150.056 483.501 159.282 490.799 164.481 492.972C169.551 495.09 180.462 495.29 184.509 493.338H184.508ZM63.0962 254.464C63.0962 254.147 64.6865 253.064 66.6302 252.059C70.6881 249.961 74.6728 244.114 78.652 234.418C81.337 227.876 81.4049 227.814 80.7326 232.524C79.2755 242.732 74.656 250.709 68.6997 253.302C64.6524 255.064 63.0962 255.386 63.0962 254.464ZM131.866 236.902C127.849 235.039 121.824 230.913 118.477 227.732L112.391 221.949L118.477 226.195C124.978 230.73 136.639 236.918 144.253 239.873L148.906 241.678L144.038 240.983C141.36 240.601 135.883 238.765 131.866 236.902ZM59.1596 203.616C58.8621 200.771 58.7367 198.283 58.881 198.087C59.0253 197.891 60.3381 199.756 61.7988 202.232C63.9008 205.794 64.1225 206.943 62.8625 207.742C60.1615 209.455 59.7186 208.962 59.1597 203.616H59.1596ZM128.181 198.919C121.17 194.829 115.434 191.277 115.434 191.025C115.434 190.773 118.31 191.714 121.824 193.116C137.626 199.419 140.928 200.175 141.085 197.53C141.135 196.694 142.237 193.818 143.536 191.14C146.043 185.969 146.037 186.443 143.445 199.356C142.672 203.205 141.789 206.355 141.484 206.355C141.178 206.355 135.192 203.009 128.181 198.919Z" fill="#03111B"/>
<path d="M108.749 293.658C118.691 291.849 141.454 283.803 141.454 282.098C141.454 280.969 129.596 278.634 123.86 278.634C117.839 278.634 113.71 277.17 112.303 274.537C111.863 273.713 111.015 260.646 110.418 245.498C109.499 222.179 109.123 217.801 107.965 216.939C106.831 216.096 106.547 216.243 106.303 217.8C105.649 221.987 103.951 222.691 94.4989 222.691H85.6798L85.1179 228.07C83.5815 242.779 77.4989 274.502 73.8754 286.704C73.1776 289.053 72.7335 291.103 72.8886 291.258C73.0437 291.413 76.2028 292.316 79.9087 293.263C87.8079 295.284 98.9731 295.436 108.749 293.658Z" fill="#6EAADF"/>
<path d="M75.8806 123.865C75.909 121.172 76.9407 117.876 77.9518 117.251C78.188 117.105 79.1683 117.263 80.1304 117.603C83.2369 118.699 88.18 119.179 91.2749 118.684C95.3239 118.037 98.2962 116.423 101.224 113.279C103.074 111.294 104.129 110.514 105.251 110.304C109.264 109.551 112.155 113.79 113.482 122.377L114 125.727L115.79 121.876C119.342 114.23 120.273 108.071 118.379 104.754C117.127 102.561 114.998 101.501 110.857 101.008C106.221 100.456 100.653 98.8084 95.0581 96.3331C86.2341 92.4293 82.5323 92.4706 78.6879 96.5159C77.5045 97.7611 75.1414 99.8744 73.4365 101.212C67.3676 105.974 66.8332 107.77 69.8969 113.107C70.9159 114.882 72.6725 118.658 73.8005 121.499L75.8515 126.662L75.8799 123.865H75.8806Z" fill="#03111B"/>
<path d="M563.828 233.949V0.861816H282.472H1.11548L1.87591 20.0322C4.05138 74.8775 17.593 134.275 39.2523 183.976L45.0652 197.315L46.4004 192.506C47.1347 189.861 47.7386 186.466 47.7424 184.962C47.7518 181.555 54.4155 174.076 64.9063 165.699C72.407 159.71 73.0071 158.865 74.035 152.842C75.0372 146.97 75.4883 146.294 79.0912 145.265C83.7197 143.943 84.355 140.577 80.7165 136.654C78.6772 134.456 69.4077 114.831 67.5812 108.846C67.1112 107.305 68.9931 104.751 74.0701 100.039C82.0249 92.6571 85.5773 91.8034 93.7363 95.313C104.257 99.8385 104.367 99.8211 107.491 93.1509C111.27 85.0836 120.32 76.1111 128.955 71.8708C135.392 68.7099 137.138 68.4146 149.383 68.4146C162.294 68.4146 163.043 68.5617 170.381 72.5413C179.625 77.5541 186.852 85.1395 191.18 94.3704C194.041 100.475 194.418 102.763 194.418 114.058C194.418 125.485 194.069 127.549 191.126 133.541C184.886 146.246 173.63 155.127 159.28 158.669L151.131 160.68L153.605 163.314C156.277 166.158 161.041 179.36 167.168 200.904C170.704 213.338 170.913 215.028 169.657 221.08C167.93 229.405 163.59 236.038 158.192 238.599C154.114 240.534 153.985 240.817 153.255 249.46C152.665 256.439 153.016 259.978 154.899 266.029C158.476 277.521 157.643 285.679 152.894 285.679C151.279 285.679 151.111 287.358 151.703 297.546C152.082 304.073 152.696 317.355 153.066 327.062L153.738 344.711L160.081 350.53C170.511 360.099 193.418 377.635 209.632 388.463C276.822 433.332 354.166 459.671 436.634 465.767C446.006 466.46 478.459 467.029 508.751 467.032L563.828 467.038V233.949ZM367.981 396.413C326.82 391.07 289.444 367.11 269.74 333.432C265.983 327.011 264.115 325.185 257.937 321.892C228.574 306.241 223.315 281.019 244.551 257.684C249.899 251.807 250.739 250.155 251.429 244.158C252.722 232.919 257.966 216.455 264.374 203.52C280.36 171.245 308.382 147.175 342.912 136.057C373.886 126.083 411.206 128.289 440.028 141.795C469.116 155.426 492.001 178.278 505.578 207.25C508.16 212.759 510.272 217.829 510.272 218.515C510.272 219.201 512.095 220.365 514.323 221.1C520.599 223.171 536.424 234.048 541.086 239.495C555.251 256.043 546.193 280.595 519.199 298.821C513.395 302.74 511.362 304.928 510.226 308.476C505.057 324.634 491.157 346.01 476.997 359.579C447.373 387.966 407.277 401.514 367.981 396.413ZM158.47 285.601C155.756 280.529 163.149 277.317 166.228 282.229C167.147 283.695 167.055 284.792 165.899 286.185C163.668 288.873 160.069 288.59 158.47 285.601ZM246.756 126.839C246.756 123.596 247.163 123.187 250.391 123.187C252.929 123.187 254.153 123.851 254.449 125.388C255.21 129.336 253.669 131.285 250.11 130.876C247.28 130.55 246.756 129.919 246.756 126.839ZM454.978 103.625C451.677 100.324 453.502 95.8008 458.135 95.8008C459.945 95.8008 462.803 99.0516 462.803 101.111C462.803 102.121 459.045 105.538 457.934 105.538C457.36 105.538 456.03 104.677 454.978 103.625ZM286.362 23.4378C284.14 20.7608 285.961 16.685 289.378 16.685C292.943 16.685 295.089 20.0194 293.471 23.0437C292.072 25.6576 288.375 25.8626 286.362 23.4378ZM145.731 20.9451C145.731 17.703 146.139 17.2936 149.366 17.2936C151.897 17.2936 153.129 17.9582 153.422 19.4821C154.008 22.5256 151.311 25.3939 148.272 24.9596C146.341 24.6837 145.731 23.7202 145.731 20.9451Z" fill="#0C1F2D"/>
<path d="M519.899 293.566C530.848 285.446 538.98 275.89 542.237 267.318C544.536 261.267 544.45 252.769 542.04 247.79C539.528 242.6 530.342 234.216 522.026 229.523C511.479 223.57 512.031 223.237 514.623 233.988C516.635 242.333 516.892 245.442 516.976 262.465C517.053 277.891 516.75 283.036 515.404 289.158C514.487 293.329 513.916 296.921 514.137 297.142C514.357 297.362 516.95 295.753 519.899 293.566Z" fill="#0C1F2D"/>
<path d="M261.825 318.907C261.825 318.669 260.57 315.316 259.036 311.454C253.848 298.395 250.076 278.584 249.967 263.83L249.923 257.915L245.963 262.216C237.363 271.558 233.498 282.249 235.404 291.428C237.314 300.631 245.291 310.038 257.383 317.348C260.65 319.323 261.825 319.735 261.825 318.907Z" fill="#0C1F2D"/>
</g>
<defs>
<clipPath id="clip0">
<rect width="565" height="506" fill="white"/>
</clipPath>
</defs>
</svg>
