<svg width="497" height="385" viewBox="0 0 497 385" fill="none" xmlns="http://www.w3.org/2000/svg">
<g clip-path="url(#clip0)">
<path d="M380.463 350.453C395.078 350.453 406.926 326.257 406.926 296.408C406.926 266.56 395.078 242.363 380.463 242.363C365.847 242.363 353.999 266.56 353.999 296.408C353.999 326.257 365.847 350.453 380.463 350.453Z" fill="#3F3D56"/>
<path d="M378.019 384.872C388.618 321.222 378.125 257.803 378.018 257.171L375.957 257.52C376.063 258.15 386.495 321.236 375.956 384.528L378.019 384.872Z" fill="#0B5FAB"/>
<path d="M357.164 284.787L356.177 286.633L380.108 299.444L381.094 297.598L357.164 284.787Z" fill="#0B5FAB"/>
<path d="M405.364 291.205L381.436 304.023L382.423 305.869L406.351 293.05L405.364 291.205Z" fill="#0B5FAB"/>
<path d="M444.047 316.58C472.633 316.58 495.806 269.254 495.806 210.874C495.806 152.494 472.633 105.168 444.047 105.168C415.461 105.168 392.287 152.494 392.287 210.874C392.287 269.254 415.461 316.58 444.047 316.58Z" fill="#E6E6E6"/>
<path d="M438.281 383.734C458.984 259.408 438.49 135.535 438.281 134.298L436.219 134.647C436.428 135.881 456.862 259.421 436.219 383.39L438.281 383.734Z" fill="#0B5FAB"/>
<path d="M398.005 189.026L397.019 190.872L443.824 215.93L444.811 214.084L398.005 189.026Z" fill="#0B5FAB"/>
<path d="M493.221 201.579L446.423 226.65L447.41 228.495L494.208 203.424L493.221 201.579Z" fill="#0B5FAB"/>
<path d="M323.835 384.066H48.5229C47.5103 384.065 46.5395 383.661 45.8236 382.945C45.1076 382.228 44.7048 381.257 44.7036 380.243V206.121C44.7047 205.107 45.1075 204.135 45.8235 203.419C46.5395 202.702 47.5103 202.299 48.5229 202.298H323.835C324.848 202.299 325.819 202.702 326.535 203.419C327.251 204.136 327.653 205.107 327.654 206.121V380.243C327.653 381.257 327.25 382.228 326.534 382.945C325.819 383.661 324.848 384.065 323.835 384.066Z" fill="#E6E6E6"/>
<path d="M73.8414 223.398C73.4074 223.399 72.9914 223.571 72.6845 223.878C72.3777 224.186 72.2051 224.602 72.2046 225.036V361.328C72.2051 361.762 72.3777 362.179 72.6845 362.486C72.9914 362.793 73.4074 362.966 73.8414 362.966H298.517C298.95 362.966 299.367 362.793 299.673 362.486C299.98 362.179 300.153 361.762 300.153 361.328V225.036C300.153 224.602 299.98 224.186 299.673 223.878C299.367 223.571 298.95 223.399 298.517 223.398H73.8414Z" fill="white"/>
<path d="M300.699 249.865H69.0586V258.502H300.699V249.865Z" fill="#E6E6E6"/>
<path d="M300.699 292.088H69.0586V300.725H300.699V292.088Z" fill="#E6E6E6"/>
<path d="M200.376 269.057H103.542V277.694H200.376V269.057Z" fill="#E6E6E6"/>
<path d="M300.699 336.71H69.0586V345.347H300.699V336.71Z" fill="#E6E6E6"/>
<path d="M107.856 222.852H99.2278V341.988H107.856V222.852Z" fill="#E6E6E6"/>
<path d="M268.926 222.852H260.297V296.886H268.926V222.852Z" fill="#E6E6E6"/>
<path d="M203.731 222.852H195.103V363.512H203.731V222.852Z" fill="#E6E6E6"/>
<path d="M154.356 293.527H145.727V363.512H154.356V293.527Z" fill="#E6E6E6"/>
<path d="M199.417 308.534C205.506 308.534 210.442 303.593 210.442 297.498C210.442 291.404 205.506 286.463 199.417 286.463C193.327 286.463 188.391 291.404 188.391 297.498C188.391 303.593 193.327 308.534 199.417 308.534Z" fill="#0B5FAB"/>
<path d="M496.784 385H0V383.808H497L496.784 385Z" fill="#3F3D56"/>
<path d="M200.738 231.942C238.301 231.942 268.752 201.464 268.752 163.867C268.752 126.271 238.301 95.7926 200.738 95.7926C163.176 95.7926 132.725 126.271 132.725 163.867C132.725 201.464 163.176 231.942 200.738 231.942Z" fill="#0B5FAB"/>
<path d="M201.403 274.53L179.916 237.791L158.429 201.053L200.96 200.796L243.492 200.54L222.447 237.535L201.403 274.53Z" fill="#0B5FAB"/>
<path d="M201.284 187.863C214.761 187.863 225.687 176.928 225.687 163.439C225.687 149.95 214.761 139.015 201.284 139.015C187.808 139.015 176.882 149.95 176.882 163.439C176.882 176.928 187.808 187.863 201.284 187.863Z" fill="white"/>
<path d="M199.165 0.349791C199.165 0.349791 184.612 -3.75347 180.307 16.1473C176.003 36.0481 179.282 46.101 179.282 46.101L211.771 42.3055C211.771 42.3055 220.995 6.40207 199.165 0.349791Z" fill="#2F2E41"/>
<path d="M177.392 86.5443C177.392 86.5443 156.044 88.6723 159.847 97.2985C163.649 105.925 163.649 106.686 163.649 106.686L182.406 140.176L188.49 133.833C188.49 133.833 181.646 118.864 181.646 114.043C181.646 109.223 174.549 100.85 174.549 100.85L186.969 99.8357L177.392 86.5443Z" fill="#FFB9B9"/>
<path d="M235.891 96.7911L242.989 112.268C242.989 112.268 248.312 117.595 254.142 138.907C259.972 160.219 261.239 159.458 261.239 159.458L252.368 161.234C252.368 161.234 242.482 138.146 239.186 136.37C235.891 134.594 231.836 118.357 231.836 118.357L220.175 103.641L223.724 95.7762L235.891 96.7911Z" fill="#FFB9B9"/>
<path d="M227.273 79.0312L238.173 99.3282C238.173 99.3282 224.484 92.9854 222.457 106.94L210.036 97.2985C210.036 97.2985 192.799 102.88 182.406 100.85C182.406 100.85 185.448 91.2094 174.548 86.8963L199.136 83.8518L198.122 78.5238L200.657 73.4496L227.273 79.0312Z" fill="#2F2E41"/>
<path d="M183.927 135.609C183.927 135.609 177.083 134.594 178.857 140.683L182.406 152.861C182.406 152.861 177.844 165.293 184.941 162.502C192.039 159.712 196.601 142.459 196.601 142.459C196.601 142.459 199.643 129.266 196.601 129.266C193.56 129.266 183.927 127.237 184.941 129.266C185.955 131.296 183.927 135.609 183.927 135.609Z" fill="#2F2E41"/>
<path d="M260.479 155.906C260.479 155.906 251.607 153.623 249.579 157.175C247.552 160.726 248.059 172.397 248.059 172.651C248.059 172.905 251.1 175.442 252.114 175.442C253.128 175.442 259.465 186.859 268.084 182.799C276.702 178.74 260.479 155.906 260.479 155.906Z" fill="#2F2E41"/>
<path d="M206.359 23.0227C207.234 17.6285 203.574 12.5461 198.184 11.6707C192.795 10.7954 187.717 14.4586 186.843 19.8528C185.968 25.247 189.628 30.3294 195.017 31.2048C200.407 32.0801 205.485 28.4168 206.359 23.0227Z" fill="#FFB9B9"/>
<path d="M204.713 23.4684C204.713 23.4684 206.741 34.1243 208.515 35.6465C210.29 37.1688 195.081 39.4522 195.081 39.4522C195.081 39.4522 197.362 32.0946 194.574 28.2889C191.785 24.4832 204.713 23.4684 204.713 23.4684Z" fill="#FFB9B9"/>
<path d="M231.328 83.8518C229.602 83.8518 225.207 83.1363 220.279 82.2154C216.016 81.4187 211.349 80.4723 207.668 79.7061C203.727 78.8841 200.911 78.2701 200.911 78.2701C200.911 78.2701 199.897 84.6129 196.601 83.8518C193.762 83.1972 185.278 53.5358 182.984 45.3383C182.817 44.7398 182.849 44.1028 183.076 43.5243C183.304 42.9459 183.714 42.4576 184.244 42.134L195.897 35.0122L198.883 36.1539C198.883 36.1539 203.927 32.2518 206.855 32.1732C209.782 32.0945 214.852 31.3334 214.852 31.3334C214.852 31.3334 220.682 31.8408 221.696 36.1539C222.71 40.467 223.217 67.3605 227.019 72.181C230.821 77.0015 236.145 83.8518 231.328 83.8518Z" fill="#D0CDE1"/>
<path d="M195.841 98.0596C195.841 98.0596 195.841 107.954 202.432 106.432C209.022 104.91 202.939 95.7762 202.939 95.7762L195.841 98.0596Z" fill="#FFB9B9"/>
<path d="M214.092 99.0745C214.092 99.0745 211.81 110.745 206.994 108.969C202.178 107.193 206.994 96.7911 206.994 96.7911L214.092 99.0745Z" fill="#FFB9B9"/>
<path opacity="0.15" d="M224.738 71.4199C224.738 71.4199 222.256 77.3466 220.279 82.2153C216.016 81.4187 211.349 80.4723 207.668 79.7061C207.933 79.0054 208.304 78.3499 208.769 77.7627C210.543 75.733 209.529 75.2256 209.529 75.2256C208.008 72.1811 209.276 68.1216 209.276 68.1216C206.234 60.0029 210.796 49.8544 210.796 49.8544L224.738 71.4199Z" fill="black"/>
<path d="M211.557 49.8544C211.557 49.8544 206.994 60.0028 210.036 68.1216C210.036 68.1216 208.769 72.181 210.29 75.2256C210.29 75.2256 211.304 75.733 209.529 77.7627C207.755 79.7924 206.234 86.8963 207.501 88.4186C208.769 89.9409 205.727 92.7317 206.487 94.254C207.248 95.7762 205.22 97.8059 205.22 97.8059C205.22 97.8059 212.824 99.3282 214.092 101.612C214.092 101.612 215.613 99.8356 214.852 97.8059C214.092 95.7762 214.599 95.0151 215.359 93.7465C216.12 92.478 218.401 89.6871 218.655 88.4186C218.908 87.15 225.499 71.4199 225.499 71.4199L222.408 42.754L211.557 49.8544Z" fill="#D0CDE1"/>
<path d="M185.195 42.7505L184.721 42.8366C184.061 42.9565 183.464 43.3058 183.036 43.8229C182.607 44.3401 182.375 44.9919 182.38 45.6636C182.398 48.2109 182.542 52.7317 183.167 58.988C184.181 69.1365 187.729 84.3592 188.49 85.8815C189.698 88.5752 191.051 91.2008 192.546 93.7466C194.827 97.5522 195.334 96.2837 194.827 98.0597C194.673 98.5488 194.662 99.0721 194.797 99.567C194.932 100.062 195.206 100.507 195.587 100.851C195.587 100.851 200.15 95.7763 204.713 98.5671C205.039 97.8497 205.212 97.0719 205.22 96.2837C205.22 95.0151 205.98 93.7466 204.713 92.9854C203.445 92.2243 205.473 88.926 203.445 87.1501C201.417 85.3741 201.164 85.6278 201.417 83.8518C201.536 82.6443 201.362 81.4259 200.911 80.2999L185.195 42.7505Z" fill="#D0CDE1"/>
<path d="M200.297 8.72818C200.297 8.72818 196.198 19.6018 186.154 24.1154L184.514 14.4727L200.297 8.72818Z" fill="#2F2E41"/>
<path d="M206.234 20.2969C207.004 20.2969 207.628 19.1042 207.628 17.633C207.628 16.1617 207.004 14.969 206.234 14.969C205.464 14.969 204.84 16.1617 204.84 17.633C204.84 19.1042 205.464 20.2969 206.234 20.2969Z" fill="#FFB9B9"/>
</g>
<defs>
<clipPath id="clip0">
<rect width="497" height="385" fill="white"/>
</clipPath>
</defs>
</svg>
