<?xml version="1.0" encoding="UTF-8"?>
<svg width="462" height="332" fill="none" version="1.1" viewBox="0 0 462 332" xmlns="http://www.w3.org/2000/svg" xmlns:cc="http://creativecommons.org/ns#" xmlns:dc="http://purl.org/dc/elements/1.1/" xmlns:rdf="http://www.w3.org/1999/02/22-rdf-syntax-ns#">
 <metadata>
  <rdf:RDF>
   <cc:Work rdf:about="">
    <dc:format>image/svg+xml</dc:format>
    <dc:type rdf:resource="http://purl.org/dc/dcmitype/StillImage"/>
    <dc:title/>
   </cc:Work>
  </rdf:RDF>
 </metadata>
 <defs>
  <clipPath id="clip0-4">
   <rect width="462" height="332" fill="#fff"/>
  </clipPath>
 </defs>
 <g transform="translate(-.000858 -3.8002)" clip-path="url(#clip0-4)">
  <g fill="#2b79bf">
   <path d="m40.159 130.26c0 10.046-6.5259 18.584-20.414 18.584-13.888 0-19.745-8.036-19.745-18.416 0-10.381 6.6932-18.584 20.247-18.584 13.554 0 19.912 8.371 19.912 18.416zm-28.112 0c0 6.027 2.51 10.548 8.1992 10.548 5.6893 0 7.8645-5.19 7.8645-10.38 0-5.191-2.1752-10.715-8.1991-10.715-6.024 0-7.8646 4.687-7.8646 10.547z"/>
   <path d="m46.518 112.68h21.753c9.0359 0 12.717 4.353 12.717 9.208 0.061 1.694-0.4508 3.36-1.4529 4.727-1.002 1.367-2.4356 2.356-4.069 2.807 3.6812 1.005 6.8605 3.683 6.8605 8.204 0 4.52-4.5179 10.38-14.39 10.38h-21.418zm18.908 13.561c3.1793 0 4.016-1.339 4.016-3.014 0-1.674-1.506-3.181-4.016-3.181h-7.8645v6.195zm-7.8645 14.566h8.0319c3.0119 0 4.8526-1.172 4.8526-3.851s-1.506-3.516-4.6853-3.516h-8.1992z"/>
   <path d="m97.721 137.45c0.6693 2.344 2.5099 4.019 7.0279 4.019s5.355-1.172 5.355-3.014-1.172-2.846-7.698-4.018c-13.051-2.344-14.892-6.697-14.892-11.385s6.5259-11.05 16.231-11.05c9.705 0 16.398 5.358 16.9 10.548h-11.211c-0.334-1.507-1.338-3.349-5.689-3.349-4.3506 0-4.6852 1.005-4.6852 2.679s1.5062 2.344 7.0282 3.349c13.219 2.511 15.896 6.696 15.896 11.887 0 5.19-5.689 11.719-17.737 11.719-12.048 0-17.068-5.022-18.072-11.385z"/>
   <path d="m158.13 133.94h-18.909v6.027h21.251l-1.338 8.036h-31.124v-35.326h31.124v8.204h-19.913v5.022h18.909z"/>
   <path d="m177.2 135.11v12.891h-11.211v-35.326h21.251c8.868 0 13.386 4.353 13.386 10.213 0.075 1.868-0.478 3.707-1.57 5.224s-2.659 2.625-4.454 3.147c1.841 0.837 5.02 2.511 5.02 8.538v2.009c-0.096 2.078 0.072 4.16 0.502 6.195h-11.378c-0.579-2.353-0.804-4.779-0.669-7.199v-1.172c0-3.349-1.172-4.52-5.522-4.52zm0-7.367h7.028c3.179 0 4.853-1.172 4.853-3.683 0-2.512-1.674-3.684-4.853-3.684h-7.028z"/>
   <path d="m216.19 148-13.721-35.326h12.55l5.187 15.905c1.257 3.737 2.318 7.537 3.18 11.385h0.167c0.919-4.052 2.149-8.026 3.681-11.887l4.685-15.403h12.383l-14.056 35.326z"/>
   <path d="m254.01 141.47-2.175 6.529h-11.546l13.386-35.326h14.893l14.223 35.326h-12.215l-2.51-6.529zm11.378-8.204-4.517-13.394h-0.168c-0.669 3.014-2.342 8.036-4.183 13.394z"/>
   <path d="m290.65 120.88h-11.713v-8.204h34.805v8.204h-11.713v27.122h-11.379z"/>
   <path d="m356.41 130.26c0 10.046-6.526 18.584-20.414 18.584-13.889 0-19.745-8.036-19.745-18.416 0-10.381 6.693-18.584 20.247-18.584s19.912 8.371 19.912 18.416zm-28.111 0c0 6.027 2.51 10.548 8.199 10.548s7.864-5.19 7.864-10.38c0-5.191-2.175-10.715-8.199-10.715s-7.864 4.687-7.864 10.547zm23.593-27.959-11.546 7.031h-9.37l8.032-7.031z"/>
   <path d="m373.98 135.11v12.891h-11.211v-35.326h21.251c8.869 0 13.386 4.353 13.386 10.213 0.105 1.874-0.436 3.728-1.532 5.251s-2.682 2.625-4.491 3.12c1.84 0.837 5.187 2.511 5.187 8.538v2.009c-0.097 2.078 0.072 4.16 0.502 6.195h-11.546c-0.579-2.353-0.804-4.779-0.669-7.199v-1.172c0-3.349-1.004-4.52-5.522-4.52zm0-7.367h7.028c3.179 0 4.853-1.172 4.853-3.683 0-2.512-1.506-3.684-4.853-3.684h-7.028z"/>
   <path d="m415.32 112.68v35.326h-11.546v-35.326z"/>
   <path d="m462 130.26c0 10.046-6.526 18.584-20.414 18.584-13.889 0-19.745-8.036-19.745-18.416 0-10.381 6.693-18.584 20.247-18.584s19.912 8.371 19.912 18.416zm-28.111 0c0 6.027 2.342 10.548 8.199 10.548 5.856 0 7.864-5.19 7.864-10.38 0-5.191-2.175-10.715-8.199-10.715s-7.864 4.687-7.864 10.547z"/>
   <path d="m54.382 189.52-1.6733 6.697h-20.08l16.231-47.046h27.108l17.57 47.046h-21.92l-1.8406-6.697zm11.713-12.724-3.8486-14.734h-0.502c-1.004 4.353-2.6773 10.548-3.6812 14.734z"/>
   <path d="m97.386 196.22v-47.046h23.594c4.183 8.539 8.367 17.244 11.379 23.774h0.502c-0.335-3.851-0.335-11.385-0.335-19.254v-4.52h18.239v47.046h-22.59c-3.179-6.53-9.705-21.263-12.717-27.625h-0.502c0.67 4.688 0.67 10.045 0.67 20.928v6.697z"/>
   <path d="m170.18 161.9h-14.055v-12.724h48.693v12.724h-14.056v34.322h-20.582z"/>
   <path d="m221.88 189.52-1.673 6.697h-20.08l16.232-47.046h27.107l17.737 47.046h-22.088l-1.673-6.697zm11.714-12.724c-1.172-5.023-2.51-10.381-3.849-14.734h-0.502c-1.004 4.353-2.51 10.548-3.681 14.734z"/>
   <path d="m284.96 179.64v16.575h-20.079v-47.046h32.462c12.717 0 18.741 6.027 18.741 13.394 0.092 2.536-0.642 5.033-2.09 7.116-1.449 2.084-3.534 3.64-5.942 4.436 4.016 1.674 6.693 5.023 6.693 12.054v2.679c-0.025 2.481 0.256 4.955 0.837 7.367h-19.745c-0.837-1.674-1.004-5.19-1.004-9.376v-1.674c0-4.521-1.172-5.525-5.857-5.525zm0-10.883h5.857c2.342 0 5.02-0.837 5.02-3.85 0-3.014-2.008-3.851-5.188-3.851h-5.689z"/>
   <path d="m366.96 178.81h-23.928v4.855h26.94l-2.51 12.557h-44.342v-47.046h45.012v12.724h-25.1v4.186h23.928z"/>
   <path d="m394.4 182.16c0.206 1.242 0.871 2.362 1.862 3.137 0.992 0.775 2.238 1.15 3.493 1.049 2.677 0 4.183-1.172 4.183-2.679s-0.502-2.846-8.199-4.353c-18.406-3.348-20.247-10.045-20.247-16.073 0-8.706 7.697-15.235 23.426-15.235s23.929 5.023 24.598 14.566h-19.243c-0.166-1.083-0.749-2.058-1.625-2.715-0.876-0.658-1.975-0.945-3.06-0.801-2.176 0-3.347 0.837-3.347 2.176 0 1.34 2.008 2.344 7.195 3.349 17.235 3.013 21.92 8.873 21.92 16.24 0 10.38-9.537 16.742-25.266 16.742-15.73 0-24.933-6.697-26.271-15.403z"/>
  </g>
  <g fill="#fff">
   <path d="m16.319 148.42c-7.6021-0.907-12.91-4.86-15.072-11.225-1.2585-3.706-1.2607-9.59-0.00476-13.2 2.189-6.293 7.3633-10.417 14.528-11.58 3.4858-0.566 6.4391-0.513 9.6774 0.173 9.1574 1.941 14.386 8.333 14.402 17.607 0.0134 7.481-3.5653 13.397-9.8842 16.342-3.6176 1.685-9.0355 2.433-13.647 1.883zm7.827-8.535c2.9965-2.02 4.131-5.081 3.8945-10.508-0.1366-3.134-0.3216-3.908-1.3843-5.79-1.5482-2.742-3.6836-3.992-6.818-3.992-5.2881 0-7.8137 3.337-7.8672 10.395-0.0313 4.135 0.8339 6.962 2.6579 8.683 1.9359 1.826 2.6457 2.096 5.5288 2.11 2.0966 9e-3 2.9168-0.175 3.9883-0.898z"/>
   <path d="m46.902 130.37v-17.63l12.893 0.153c14.687 0.174 15.532 0.325 18.523 3.318 3.0306 3.032 3.2677 7.649 0.5517 10.744-0.6494 0.74-1.7352 1.575-2.4129 1.856l-1.2322 0.511 2.281 1.224c4.1444 2.226 5.5544 6.032 3.7708 10.18-1.6514 3.841-5.5529 6.228-11.252 6.884-1.8329 0.21-7.7851 0.384-13.227 0.386l-9.8945 3e-3zm21.959 9.844c1.3026-0.674 1.6277-1.328 1.6277-3.274 0-3.146-1.3133-3.741-8.2551-3.741h-4.9376v7.6h5.217c3.7967 0 5.5248-0.159 6.348-0.585zm-0.7776-14.329c2.0831-1.055 1.9341-4.443-0.2391-5.434-0.5601-0.255-3.0698-0.452-5.7698-0.452h-4.7785v6.4l4.8973-6e-3c3.1268-4e-3 5.2562-0.187 5.8901-0.508z"/>
   <path d="m35.939 187.3c1.6528-4.785 5.2865-15.317 8.0748-23.405l5.0698-14.705 26.74 0.21 7.9117 21.2c4.3514 11.66 8.272 22.145 8.7125 23.3l0.8008 2.1h-21.486l-1.7954-6.8h-15.775l-0.4685 1.9c-0.2577 1.045-0.6458 2.575-0.8625 3.4l-0.3939 1.5h-19.534zm30.147-11c-0.0082-0.75-3.5194-13.96-3.7801-14.221-0.1241-0.124-0.3774-0.058-0.563 0.148-0.3172 0.351-3.6471 13.284-3.6471 14.165 0 0.25 1.5455 0.408 3.9978 0.408 2.9346 0 3.9964-0.133 3.9924-0.5z"/>
   <path d="m97.674 172.6v-23.4h23.061l4.214 8.7c2.318 4.785 4.89 10.185 5.716 12 0.825 1.815 1.656 3.3 1.845 3.3s0.344-5.4 0.344-12v-12h17.59v46.8h-22.309l-0.411-1.1c-1.034-2.773-12.007-26.282-12.314-26.385-0.192-0.064-0.286 6.025-0.21 13.685l0.135 13.8h-17.661z"/>
   <path d="m100.07 148.38c-6.9239-0.945-10.935-3.563-12.974-8.468-0.34-0.818-0.6182-1.673-0.6182-1.9 0-0.264 1.9832-0.412 5.497-0.411l5.497 3e-3 0.6613 1.163c1.0761 1.893 2.48 2.549 5.872 2.746 3.844 0.222 5.844-0.475 6.164-2.15 0.537-2.809-0.784-3.675-7.864-5.156-9.8303-2.057-13.843-4.768-14.519-9.808-0.5965-4.45 3.6836-9.3 9.9217-11.242 2.9131-0.907 8.7611-1.014 11.759-0.215 5.591 1.49 9.562 4.645 10.768 8.557l0.278 0.9h-10.828l-0.579-1.122c-0.805-1.557-2.201-2.078-5.568-2.078-3.416 0-4.6671 0.642-4.6671 2.394 0 1.547 1.4731 2.644 4.3221 3.216 13.844 2.78 18.465 5.781 18.465 11.99 0 4.998-4.188 9.312-10.618 10.94-3.181 0.805-7.794 1.075-10.97 0.641z"/>
   <path d="m128.06 130.4v-17.6h30.783v8h-19.989v5.2h19.189v7.586l-18.989 0.214-0.234 6.2h10.611c12.067 0 10.936-0.424 10.201 3.827-0.226 1.305-0.499 2.778-0.607 3.273l-0.197 0.9h-30.768z"/>
   <path d="m170.43 178.8v-17.2h-13.992v-12.4h48.373v12.4h-14.392v34.4h-19.989z"/>
   <path d="m166.04 130.37v-17.63l12.693 0.162c8.346 0.106 13.196 0.326 14.163 0.641 2.796 0.911 5.249 2.908 6.458 5.257 0.988 1.922 1.107 2.522 0.941 4.748-0.231 3.099-1.642 5.373-4.219 6.798l-1.711 0.947 1.183 0.719c3.023 1.84 3.975 4.654 4.029 11.91 0.013 1.827 0.129 3.492 0.258 3.7 0.142 0.231-1.96 0.378-5.387 0.378-3.091 0-5.634-0.045-5.649-0.1s-0.176-2.522-0.357-5.483c-0.31-5.103-0.381-5.43-1.363-6.275-1.227-1.056-3.419-1.439-7.247-1.267l-2.798 0.125-0.22 13h-10.774zm20.969-2.936c0.745-0.311 1.549-0.93 1.786-1.374 0.654-1.222 0.518-3.467-0.268-4.418-0.899-1.088-4.261-1.714-8.378-1.559l-3.115 0.117-0.115 3.9-0.114 3.9h4.425c2.911 0 4.888-0.194 5.779-0.566z"/>
   <path d="m216.13 147.31c-0.217-0.589-12.567-32.406-13.206-34.021-0.16-0.403 1.074-0.487 5.885-0.4l6.086 0.111 2.951 9c2.721 8.298 3.787 11.808 4.949 16.3 0.242 0.935 0.585 1.7 0.761 1.7s0.544-0.998 0.817-2.218 1.268-4.505 2.211-7.3c0.944-2.795 2.574-7.917 3.623-11.382l1.907-6.3h11.872l-0.591 1.5c-0.325 0.825-3.448 8.7-6.941 17.5l-6.351 16-6.856 0.11c-6.259 0.099-6.879 0.047-7.117-0.6z"/>
   <path d="m203.65 186.7c1.763-5.115 5.391-15.647 8.064-23.405l4.859-14.105 26.733 0.21 8.538 22.6c4.696 12.43 8.641 22.915 8.766 23.3 0.213 0.655-0.465 0.7-10.546 0.7h-10.774l-0.468-1.9c-0.258-1.045-0.646-2.575-0.862-3.4l-0.394-1.5h-15.866l-0.468 1.9c-0.258 1.045-0.646 2.575-0.863 3.4l-0.394 1.5h-19.529zm29.949-10.323c0-0.488-2.155-9.156-3.052-12.277-0.332-1.155-0.815-2.096-1.074-2.092-0.278 5e-3 -1.213 3.04-2.279 7.4l-1.806 7.392h4.105c2.622 0 4.106-0.153 4.106-0.423z"/>
   <path d="m240.79 147.71c-3e-3 -0.171 2.919-8.095 6.497-17.609l6.503-17.298 14.66 0.196 6.732 16.69c3.703 9.179 6.85 17.059 6.993 17.511 0.256 0.806 0.152 0.819-5.621 0.71l-5.882-0.111-2.4-6.618-14.415 0.218-2.132 6.4-5.464 0.111c-3.005 0.062-5.467-0.028-5.471-0.2zm24.794-14.367c0-0.142-1.035-3.29-2.299-6.997-2.071-6.073-2.898-7.835-2.898-6.174 0 0.315-0.9 3.352-1.999 6.749-1.1 3.398-1.999 6.29-1.999 6.428 0 0.137 2.069 0.25 4.597 0.25 2.529 0 4.598-0.115 4.598-0.256z"/>
   <path d="m265.18 172.57v-23.434l18.49 0.167c19.713 0.179 20.426 0.245 24.826 2.315 6.994 3.289 9.505 11.547 5.398 17.75-1.025 1.548-2.431 2.719-5.341 4.447-0.598 0.355-0.429 0.574 1.255 1.624 3.703 2.308 4.483 4.865 5.082 16.665l0.199 3.9h-9.54c-6.921 0-9.619-0.13-9.831-0.474-0.161-0.261-0.42-3.366-0.574-6.9-0.155-3.534-0.415-6.748-0.579-7.141-0.556-1.333-2.365-1.885-6.178-1.885h-3.618v16.4h-19.589zm29.819-5.088c0.645-0.751 0.964-1.615 0.964-2.611 0-3.102-1.816-4.061-7.696-4.065l-3.498-2e-3v8.069l4.633-0.135c4.508-0.13 4.659-0.164 5.597-1.256z"/>
   <path d="m290.77 134.4v-13.6h-11.594v-8h34.381v8h-11.593v27.2h-11.194z"/>
   <path d="m332.34 148.4c-4.889-0.597-9.307-2.723-11.811-5.686-1.797-2.126-3.352-5.911-3.859-9.389-1.063-7.297 1.941-14.46 7.568-18.047 6.107-3.893 15.852-4.267 22.757-0.873 12.417 6.102 12.149 26.055-0.428 31.96-4.036 1.894-9.255 2.641-14.227 2.035zm7.849-8.366c2.915-1.779 4.22-4.805 4.201-9.744-0.021-5.213-1.481-8.352-4.583-9.855-3.772-1.827-8.361-0.648-10.156 2.609-1.689 3.063-1.972 9.373-0.582 12.98 0.598 1.553 2.487 3.62 3.851 4.214 1.873 0.817 5.776 0.707 7.269-0.204z"/>
   <path d="m323.15 172.6v-23.4h44.775v12.4h-25.186v4.8h23.987v12.4h-23.987v5.2h13.393c10.103 0 13.393 0.117 13.393 0.477 0 0.262-0.489 2.962-1.085 6l-1.085 5.523h-44.205z"/>
   <path d="m391.71 196.63c-7.949-1.536-13.961-5.479-16.425-10.775-1.719-3.693-2.336-3.456 8.981-3.456h9.946l0.516 1.247c0.71 1.715 2.552 2.75 4.898 2.751 3.37 4e-3 5.125-1.568 4.269-3.822-0.529-1.391-2.205-2.076-8.709-3.561-14.311-3.267-19.326-7.196-19.378-15.18-0.038-5.944 2.494-9.821 8.242-12.62 4.428-2.157 8.267-2.862 15.443-2.839 10.122 0.034 16.443 1.966 20.321 6.212 1.943 2.127 3.279 4.932 3.279 6.883v0.929h-18.594l-0.535-1.209c-1.212-2.739-6.325-3.28-7.646-0.81-1.053 1.968 0.91 3.056 8.351 4.628 14.97 3.162 20.816 7.949 20.331 16.646-0.391 7.014-5.483 12.194-14.3 14.548-3.493 0.932-15.033 1.192-18.99 0.428z"/>
   <path d="m363.13 130.37v-17.63l12.493 0.151c14.014 0.169 15.216 0.369 18.343 3.047 4.134 3.541 4.274 10.094 0.287 13.451-0.712 0.599-1.736 1.258-2.275 1.463-0.968 0.368-0.957 0.388 0.806 1.507 2.898 1.839 3.328 3.157 3.691 11.341l0.192 4.3h-11.045l-0.248-1.5c-0.136-0.825-0.249-2.958-0.252-4.74-5e-3 -3.725-0.524-5.58-1.745-6.24-0.472-0.254-2.792-0.544-5.155-0.643l-4.298-0.18v13.303h-10.794zm21.774-3.557c0.901-0.847 1.033-1.264 0.931-2.959-0.181-3.042-1.075-3.517-7.084-3.765l-4.827-0.199v8.192l4.965-0.141c4.63-0.131 5.037-0.208 6.015-1.128z"/>
   <path d="m335.38 105.8 3.879-3.4h12.055l-5.586 3.394-5.585 3.394-8.642 0.012z"/>
   <path d="m403.9 130.4v-17.6h11.193v35.2h-11.193z"/>
   <path d="m438.09 148.42c-4.816-0.571-9.571-2.819-11.971-5.66-3.07-3.632-4.652-9.948-3.832-15.292 1.398-9.111 7.834-14.618 17.902-15.321 11.556-0.807 19.808 5.033 21.35 15.112 1.476 9.646-4.052 18.299-13.097 20.502-3.058 0.744-7.336 1.017-10.352 0.659zm7.802-8.362c4.594-2.448 5.679-12.477 1.922-17.757-1.793-2.519-6.462-3.439-9.786-1.929-1.185 0.538-1.986 1.309-2.795 2.691-1.016 1.735-1.15 2.382-1.281 6.204-0.109 3.192 0.018 4.761 0.506 6.23 0.62 1.87 2.298 3.883 4.031 4.838 1.332 0.734 5.821 0.565 7.403-0.277z"/>
  </g>
 </g>
</svg>
