<svg width="110" height="79" viewBox="0 0 110 79" fill="none" xmlns="http://www.w3.org/2000/svg">
<g clip-path="url(#clip0)">
<path d="M100.757 0H9.12354V52.587H100.757V0Z" fill="#0B5FAB"/>
<path d="M9.56176 61.2718C9.56176 63.6621 8.00797 65.6939 4.70119 65.6939C1.39442 65.6939 0 63.7816 0 61.3116C0 58.8416 1.59362 56.8895 4.82072 56.8895C8.04781 56.8895 9.56176 58.8815 9.56176 61.2718ZM2.86853 61.2718C2.86853 62.706 3.46614 63.7816 4.82072 63.7816C6.1753 63.7816 6.69323 62.5466 6.69323 61.3116C6.69323 60.0766 6.1753 58.7619 4.74104 58.7619C3.30677 58.7619 2.86853 59.8774 2.86853 61.2718Z" fill="#2B79BF"/>
<path d="M11.0757 57.0887H16.255C18.4064 57.0887 19.2829 58.1245 19.2829 59.2799C19.2974 59.683 19.1755 60.0793 18.9369 60.4046C18.6984 60.73 18.357 60.9653 17.9681 61.0726C18.8446 61.3116 19.6016 61.9491 19.6016 63.0247C19.6016 64.1004 18.5259 65.4947 16.1753 65.4947H11.0757V57.0887ZM15.5777 60.3157C16.3346 60.3157 16.5339 59.997 16.5339 59.5986C16.5339 59.2002 16.1753 58.8417 15.5777 58.8417H13.7052V60.3157H15.5777ZM13.7052 63.7816H15.6175C16.3347 63.7816 16.7729 63.5028 16.7729 62.8653C16.7729 62.2279 16.4143 62.0287 15.6574 62.0287H13.7052V63.7816Z" fill="#2B79BF"/>
<path d="M23.2668 62.9849C23.4262 63.5427 23.8644 63.941 24.9401 63.941C26.0158 63.941 26.215 63.6622 26.215 63.224C26.215 62.7857 25.9361 62.5467 24.3824 62.2678C21.2748 61.7101 20.8365 60.6743 20.8365 59.5588C20.8365 58.4433 22.3903 56.9294 24.7011 56.9294C27.0118 56.9294 28.6055 58.2043 28.725 59.4393H26.0557C25.976 59.0807 25.7369 58.6425 24.7011 58.6425C23.6652 58.6425 23.5856 58.8815 23.5856 59.2799C23.5856 59.6783 23.9441 59.8377 25.2589 60.0767C28.4063 60.6743 29.0437 61.6702 29.0437 62.9052C29.0437 64.1402 27.6891 65.6939 24.8206 65.6939C21.9521 65.6939 20.7569 64.4988 20.5178 62.9849H23.2668Z" fill="#2B79BF"/>
<path d="M37.6493 62.1483H33.1474V63.5824H38.2071L37.8884 65.4947H30.478V57.0887H37.8884V59.0408H33.1474V60.236H37.6493V62.1483Z" fill="#2B79BF"/>
<path d="M42.1913 62.4271V65.4947H39.522V57.0887H44.5817C46.6933 57.0887 47.769 58.1246 47.769 59.5189C47.7867 59.9634 47.6551 60.401 47.3951 60.762C47.1352 61.123 46.7619 61.3866 46.3347 61.5108C46.773 61.71 47.5299 62.1084 47.5299 63.5426V64.0207C47.5069 64.5151 47.5471 65.0104 47.6495 65.4947H44.9403C44.8025 64.9347 44.7488 64.3574 44.7809 63.7816V63.5028C44.7809 62.706 44.5021 62.4271 43.4662 62.4271H42.1913ZM42.1913 60.6742H43.8646C44.6216 60.6742 45.02 60.3954 45.02 59.7978C45.02 59.2002 44.6216 58.9213 43.8646 58.9213H42.1913V60.6742Z" fill="#2B79BF"/>
<path d="M51.4742 65.4947L48.2073 57.0887H51.1953L52.4304 60.8734C52.7295 61.7627 52.9822 62.6669 53.1874 63.5824H53.2272C53.446 62.6184 53.739 61.6727 54.1037 60.7539L55.2192 57.0887H58.1674L54.8208 65.4947H51.4742Z" fill="#2B79BF"/>
<path d="M60.4781 63.941L59.9602 65.4947H57.2112L60.3984 57.0887H63.9442L67.3307 65.4947H64.4223L63.8247 63.941H60.4781ZM63.1873 61.9889L62.1116 58.8018H62.0717C61.9124 59.5189 61.514 60.7141 61.0757 61.9889H63.1873Z" fill="#2B79BF"/>
<path d="M69.2032 59.0408H66.4143V57.0887H74.7012V59.0408H71.9123V65.4947H69.2032V59.0408Z" fill="#2B79BF"/>
<path d="M84.8606 61.2718C84.8606 63.6621 83.3068 65.6939 80 65.6939C76.6932 65.6939 75.2988 63.7817 75.2988 61.3117C75.2988 58.8417 76.8925 56.8896 80.1195 56.8896C83.3466 56.8896 84.8606 58.8815 84.8606 61.2718ZM78.1673 61.2718C78.1673 62.706 78.765 63.7817 80.1195 63.7817C81.4741 63.7817 81.9921 62.5467 81.9921 61.3117C81.9921 60.0767 81.4741 58.762 80.0399 58.762C78.6056 58.762 78.1673 59.8775 78.1673 61.2718ZM83.7849 54.6188L81.0359 56.292H78.8048L80.7172 54.6188H83.7849Z" fill="#2B79BF"/>
<path d="M89.0438 62.4271V65.4947H86.3745V57.0887H91.4343C93.5458 57.0887 94.6215 58.1246 94.6215 59.5189C94.6465 59.9649 94.5177 60.406 94.2566 60.7685C93.9956 61.131 93.6182 61.393 93.1873 61.5108C93.6255 61.71 94.4223 62.1084 94.4223 63.5426V64.0207C94.3993 64.5151 94.4394 65.0104 94.5418 65.4947H91.7928C91.6551 64.9347 91.6014 64.3574 91.6335 63.7816V63.5028C91.6335 62.706 91.3944 62.4271 90.3187 62.4271H89.0438ZM89.0438 60.6742H90.7171C91.4741 60.6742 91.8725 60.3954 91.8725 59.7978C91.8725 59.2002 91.514 58.9213 90.7171 58.9213H89.0438V60.6742Z" fill="#2B79BF"/>
<path d="M98.8845 57.0887V65.4947H96.1355V57.0887H98.8845Z" fill="#2B79BF"/>
<path d="M110 61.2718C110 63.6621 108.446 65.6939 105.139 65.6939C101.833 65.6939 100.438 63.7816 100.438 61.3116C100.438 58.8416 102.032 56.8895 105.259 56.8895C108.486 56.8895 110 58.8815 110 61.2718ZM103.307 61.2718C103.307 62.706 103.865 63.7816 105.259 63.7816C106.653 63.7816 107.131 62.5466 107.131 61.3116C107.131 60.0766 106.614 58.7619 105.179 58.7619C103.745 58.7619 103.307 59.8774 103.307 61.2718Z" fill="#2B79BF"/>
<path d="M12.9483 75.3747L12.5499 76.9682H7.76904L11.6336 65.7736H18.0878L22.271 76.9682H17.0519L16.6137 75.3747H12.9483ZM15.7372 72.3469L14.8208 68.8411H14.7013C14.4623 69.8769 14.0639 71.351 13.8248 72.3469H15.7372Z" fill="#2B79BF"/>
<path d="M23.1873 76.9682V65.7736H28.8048C29.8008 67.8053 30.7968 69.8769 31.5139 71.4306H31.6335C31.5538 70.5143 31.5538 68.7216 31.5538 66.8492V65.7736H35.8964V76.9682H30.5179C29.761 75.4145 28.2072 71.9087 27.49 70.3948H27.3705C27.5299 71.5103 27.5299 72.7852 27.5299 75.3747V76.9682H23.1873Z" fill="#2B79BF"/>
<path d="M40.518 68.8013H37.1714V65.7736H48.765V68.8013H45.4184V76.9682H40.518V68.8013Z" fill="#2B79BF"/>
<path d="M52.8287 75.3747L52.4303 76.9682H47.6494L51.514 65.7736H57.9681L62.1912 76.9682H56.9323L56.5339 75.3747H52.8287ZM55.6175 72.3469C55.3387 71.1518 55.0199 69.8769 54.7012 68.8411H54.5817C54.3426 69.8769 53.9841 71.351 53.7052 72.3469H55.6175Z" fill="#2B79BF"/>
<path d="M67.8485 73.0242V76.9682H63.0676V65.7736H70.7967C73.8246 65.7736 75.2589 67.2078 75.2589 68.9606C75.2807 69.5641 75.1061 70.1583 74.7612 70.654C74.4164 71.1497 73.9199 71.5201 73.3465 71.7095C74.3027 72.1079 74.9401 72.9047 74.9401 74.5779V75.2153C74.9341 75.8056 75.001 76.3943 75.1393 76.9682H70.4381C70.2389 76.5698 70.1991 75.7332 70.1991 74.7373V74.3389C70.1991 73.2632 69.9202 73.0242 68.8047 73.0242H67.8485ZM67.8485 70.4347H69.2429C69.8007 70.4347 70.4381 70.2355 70.4381 69.5184C70.4381 68.8013 69.96 68.6021 69.2031 68.6021H67.8485V70.4347Z" fill="#2B79BF"/>
<path d="M87.3706 72.825H81.6734V73.9803H88.0878L87.4901 76.9682H76.9324V65.7736H87.6495V68.8013H81.6734V69.7973H87.3706V72.825Z" fill="#2B79BF"/>
<path d="M93.9043 73.6218C93.9533 73.9174 94.1115 74.1838 94.3476 74.3683C94.5837 74.5528 94.8805 74.6418 95.1792 74.6178C95.8167 74.6178 96.1752 74.3389 96.1752 73.9804C96.1752 73.6218 96.0557 73.3031 94.223 72.9446C89.8406 72.1478 89.4023 70.5543 89.4023 69.1201C89.4023 67.0485 91.235 65.4948 94.98 65.4948C98.725 65.4948 100.677 66.6899 100.837 68.9607H96.2549C96.2155 68.703 96.0765 68.4711 95.868 68.3146C95.6594 68.1582 95.3978 68.0898 95.1394 68.1241C94.6214 68.1241 94.3425 68.3233 94.3425 68.642C94.3425 68.9607 94.8206 69.1997 96.0557 69.4388C100.159 70.1559 101.275 71.5502 101.275 73.3031C101.275 75.7731 99.0039 77.287 95.2589 77.287C91.5139 77.287 89.3226 75.6934 89.0039 73.6218H93.9043Z" fill="#2B79BF"/>
<path d="M32.1913 32.2693L31.4343 31.5921L30.4781 31.8311L30.9164 30.9148L30.3984 30.0782L31.3546 30.1977L32.0319 29.4408L32.2311 30.3969L33.1474 30.7953L32.2709 31.2734L32.1913 32.2693Z" fill="white"/>
<path d="M25.8168 36.6515L25.0598 35.9743L24.1036 36.2133L24.5419 35.297L24.0239 34.4604L24.9801 34.5799L25.6574 33.823L25.8566 34.7791L26.7729 35.1775L25.8964 35.6556L25.8168 36.6515Z" fill="white"/>
<path d="M21.8326 39.4402L21.0757 38.763L20.1195 39.002L20.5577 38.0857L20.0398 37.2491L20.996 37.3686L21.6733 36.6117L21.8725 37.5678L22.7888 37.9662L21.9123 38.4443L21.8326 39.4402Z" fill="white"/>
<path d="M28.6056 43.8224L27.8486 43.1452L26.8924 43.3842L27.3307 42.4679L26.8127 41.6313L27.7689 41.7508L28.4462 40.9939L28.6454 41.95L29.5617 42.3484L28.6853 42.8265L28.6056 43.8224Z" fill="white"/>
<path d="M51.3148 44.2209L50.5578 43.5436L49.6017 43.7827L50.0399 42.8664L49.522 42.0298L50.4781 42.1493L51.1554 41.3923L51.3546 42.3485L52.271 42.7468L51.3945 43.2249L51.3148 44.2209Z" fill="white"/>
<path d="M42.9481 45.8144L42.1911 45.1371L41.235 45.3762L41.6732 44.4599L41.1553 43.6233L42.1114 43.7428L42.7887 42.9858L42.9879 43.942L43.9043 44.3404L43.0278 44.8184L42.9481 45.8144Z" fill="white"/>
<path d="M54.5021 37.8467L53.7451 37.1695L52.7889 37.4085L53.2272 36.4922L52.7092 35.6556L53.6654 35.7751L54.3427 35.0182L54.5419 35.9743L55.4582 36.3727L54.5817 36.8508L54.5021 37.8467Z" fill="white"/>
<path d="M57.2909 29.4806L56.5339 28.8034L55.5777 29.0424L56.016 28.1261L55.498 27.2895L56.4542 27.409L57.1315 26.6521L57.3307 27.6082L58.247 28.0066L57.3706 28.4847L57.2909 29.4806Z" fill="white"/>
<path d="M67.6493 19.1225L66.8923 18.4452L65.9361 18.6843L66.3744 17.768L65.8564 16.9314L66.8126 17.0509L67.4899 16.2939L67.6891 17.2501L68.6054 17.6485L67.729 18.1265L67.6493 19.1225Z" fill="white"/>
<path d="M72.0318 14.7403L71.2749 14.063L70.3187 14.3021L70.7569 13.3858L70.239 12.5492L71.1952 12.6687L71.8725 11.9117L72.0717 12.8679L72.988 13.2663L72.1115 13.7443L72.0318 14.7403Z" fill="white"/>
<path d="M76.8126 13.9435L76.0556 13.2663L75.0995 13.5053L75.5377 12.589L75.0198 11.7524L75.9759 11.8719L76.6532 11.115L76.8524 12.0711L77.7688 12.4695L76.8923 12.9476L76.8126 13.9435Z" fill="white"/>
<path d="M89.1634 5.97576L88.4065 5.2985L87.4503 5.53753L87.8885 4.62125L87.3706 3.78463L88.3268 3.90415L89.0041 3.14722L89.2033 4.10334L90.1196 4.50173L89.2431 4.97979L89.1634 5.97576Z" fill="white"/>
<path d="M91.5538 11.9516L90.7968 11.2743L89.8407 11.5134L90.2789 10.5971L89.761 9.76047L90.7172 9.87998L91.3944 9.12305L91.5937 10.0792L92.51 10.4776L91.6335 10.9556L91.5538 11.9516Z" fill="white"/>
<path d="M90.3585 18.3257L89.6015 17.6485L88.6454 17.8875L89.0836 16.9712L88.5657 16.1346L89.5218 16.2541L90.1991 15.4972L90.3983 16.4533L91.3147 16.8517L90.4382 17.3298L90.3585 18.3257Z" fill="white"/>
</g>
<defs>
<clipPath id="clip0">
<rect width="110" height="79" fill="white"/>
</clipPath>
</defs>
</svg>
