<svg width="462" height="332" viewBox="0 0 462 332" fill="none" xmlns="http://www.w3.org/2000/svg">
<g clip-path="url(#clip0)">
<path d="M40.1594 130.255C40.1594 140.301 33.6335 148.839 19.745 148.839C5.85657 148.839 0 140.803 0 130.423C0 120.042 6.69322 111.839 20.247 111.839C33.8008 111.839 40.1594 120.21 40.1594 130.255ZM12.0478 130.255C12.0478 136.282 14.5578 140.803 20.247 140.803C25.9363 140.803 28.1115 135.613 28.1115 130.423C28.1115 125.232 25.9363 119.708 19.9124 119.708C13.8884 119.708 12.0478 124.395 12.0478 130.255Z" fill="#2B79BF"/>
<path d="M46.5181 112.676H68.271C77.3069 112.676 80.9882 117.029 80.9882 121.884C81.0492 123.578 80.5374 125.244 79.5353 126.611C78.5333 127.978 77.0997 128.967 75.4663 129.418C79.1475 130.423 82.3268 133.101 82.3268 137.622C82.3268 142.142 77.8089 148.002 67.9364 148.002H46.5181V112.676ZM65.4264 126.237C68.6057 126.237 69.4424 124.898 69.4424 123.223C69.4424 121.549 67.9364 120.042 65.4264 120.042H57.5619V126.237H65.4264ZM57.5619 140.803H65.5938C68.6057 140.803 70.4464 139.631 70.4464 136.952C70.4464 134.273 68.9404 133.436 65.7611 133.436H57.5619V140.803Z" fill="#2B79BF"/>
<path d="M97.7211 137.454C98.3904 139.798 100.231 141.473 104.749 141.473C109.267 141.473 110.104 140.301 110.104 138.459C110.104 136.617 108.932 135.613 102.406 134.441C89.3546 132.097 87.5139 127.744 87.5139 123.056C87.5139 118.368 94.0398 112.006 103.745 112.006C113.45 112.006 120.143 117.364 120.645 122.554H109.434C109.1 121.047 108.096 119.205 103.745 119.205C99.3944 119.205 99.0598 120.21 99.0598 121.884C99.0598 123.558 100.566 124.228 106.088 125.233C119.307 127.744 121.984 131.929 121.984 137.12C121.984 142.31 116.295 148.839 104.247 148.839C92.1992 148.839 87.1793 143.817 86.1753 137.454H97.7211Z" fill="#2B79BF"/>
<path d="M158.128 133.939H139.219V139.966H160.47L159.132 148.002H128.008V112.676H159.132V120.88H139.219V125.902H158.128V133.939Z" fill="#2B79BF"/>
<path d="M177.203 135.111V148.002H165.992V112.676H187.243C196.111 112.676 200.629 117.029 200.629 122.889C200.704 124.757 200.151 126.596 199.059 128.113C197.967 129.63 196.4 130.738 194.605 131.26C196.446 132.097 199.625 133.771 199.625 139.798V141.807C199.529 143.885 199.697 145.967 200.127 148.002H188.749C188.17 145.649 187.945 143.223 188.08 140.803V139.631C188.08 136.282 186.908 135.111 182.558 135.111H177.203ZM177.203 127.744H184.231C187.41 127.744 189.084 126.572 189.084 124.061C189.084 121.549 187.41 120.377 184.231 120.377H177.203V127.744Z" fill="#2B79BF"/>
<path d="M216.191 148.002L202.47 112.676H215.02L220.207 128.581C221.464 132.318 222.525 136.118 223.387 139.966H223.554C224.473 135.914 225.703 131.94 227.235 128.079L231.92 112.676H244.303L230.247 148.002H216.191Z" fill="#2B79BF"/>
<path d="M254.008 141.473L251.833 148.002H240.287L253.673 112.676H268.566L282.789 148.002H270.574L268.064 141.473H254.008ZM265.386 133.269L260.869 119.875H260.701C260.032 122.889 258.359 127.911 256.518 133.269H265.386Z" fill="#2B79BF"/>
<path d="M290.653 120.88H278.94V112.676H313.745V120.88H302.032V148.002H290.653V120.88Z" fill="#2B79BF"/>
<path d="M356.414 130.255C356.414 140.301 349.888 148.839 336 148.839C322.111 148.839 316.255 140.803 316.255 130.423C316.255 120.042 322.948 111.839 336.502 111.839C350.056 111.839 356.414 120.21 356.414 130.255ZM328.303 130.255C328.303 136.282 330.813 140.803 336.502 140.803C342.191 140.803 344.366 135.613 344.366 130.423C344.366 125.232 342.191 119.708 336.167 119.708C330.143 119.708 328.303 124.395 328.303 130.255ZM351.896 102.296L340.35 109.327H330.98L339.012 102.296H351.896Z" fill="#2B79BF"/>
<path d="M373.984 135.111V148.002H362.773V112.676H384.024C392.893 112.676 397.41 117.029 397.41 122.889C397.515 124.763 396.974 126.617 395.878 128.14C394.782 129.663 393.196 130.765 391.387 131.26C393.227 132.097 396.574 133.771 396.574 139.798V141.807C396.477 143.885 396.646 145.967 397.076 148.002H385.53C384.951 145.649 384.726 143.223 384.861 140.803V139.631C384.861 136.282 383.857 135.111 379.339 135.111H373.984ZM373.984 127.744H381.012C384.191 127.744 385.865 126.572 385.865 124.061C385.865 121.549 384.359 120.377 381.012 120.377H373.984V127.744Z" fill="#2B79BF"/>
<path d="M415.315 112.676V148.002H403.769V112.676H415.315Z" fill="#2B79BF"/>
<path d="M462 130.255C462 140.301 455.474 148.839 441.586 148.839C427.697 148.839 421.841 140.803 421.841 130.423C421.841 120.042 428.534 111.839 442.088 111.839C455.642 111.839 462 120.21 462 130.255ZM433.889 130.255C433.889 136.282 436.231 140.803 442.088 140.803C447.944 140.803 449.952 135.613 449.952 130.423C449.952 125.232 447.777 119.708 441.753 119.708C435.729 119.708 433.889 124.395 433.889 130.255Z" fill="#2B79BF"/>
<path d="M54.3824 189.523L52.7091 196.22H32.6294L48.8605 149.174H75.968L93.5378 196.22H71.6174L69.7768 189.523H54.3824ZM66.0955 176.799L62.2469 162.065H61.7449C60.7409 166.418 59.0676 172.613 58.0637 176.799H66.0955Z" fill="#2B79BF"/>
<path d="M97.3865 196.22V149.174H120.98C125.163 157.713 129.347 166.418 132.359 172.948H132.861C132.526 169.097 132.526 161.563 132.526 153.694V149.174H150.765V196.22H128.175C124.996 189.69 118.47 174.957 115.458 168.595H114.956C115.626 173.283 115.626 178.64 115.626 189.523V196.22H97.3865Z" fill="#2B79BF"/>
<path d="M170.175 161.898H156.12V149.174H204.813V161.898H190.757V196.22H170.175V161.898Z" fill="#2B79BF"/>
<path d="M221.88 189.523L220.207 196.22H200.127L216.359 149.174H243.466L261.203 196.22H239.115L237.442 189.523H221.88ZM233.594 176.799C232.422 171.776 231.084 166.418 229.745 162.065H229.243C228.239 166.418 226.733 172.613 225.562 176.799H233.594Z" fill="#2B79BF"/>
<path d="M284.964 179.645V196.22H264.885V149.174H297.347C310.064 149.174 316.088 155.201 316.088 162.568C316.18 165.104 315.446 167.601 313.998 169.684C312.549 171.768 310.464 173.324 308.056 174.12C312.072 175.794 314.749 179.143 314.749 186.174V188.853C314.724 191.334 315.005 193.808 315.586 196.22H295.841C295.004 194.546 294.837 191.03 294.837 186.844V185.17C294.837 180.649 293.665 179.645 288.98 179.645H284.964ZM284.964 168.762H290.821C293.163 168.762 295.841 167.925 295.841 164.912C295.841 161.898 293.833 161.061 290.653 161.061H284.964V168.762Z" fill="#2B79BF"/>
<path d="M366.956 178.808H343.028V183.663H369.968L367.458 196.22H323.116V149.174H368.128V161.898H343.028V166.084H366.956V178.808Z" fill="#2B79BF"/>
<path d="M394.398 182.156C394.604 183.398 395.269 184.518 396.26 185.293C397.252 186.068 398.498 186.443 399.753 186.342C402.43 186.342 403.936 185.17 403.936 183.663C403.936 182.156 403.434 180.817 395.737 179.31C377.331 175.962 375.49 169.265 375.49 163.237C375.49 154.531 383.187 148.002 398.916 148.002C414.645 148.002 422.845 153.025 423.514 162.568H404.271C404.105 161.485 403.522 160.51 402.646 159.853C401.77 159.195 400.671 158.908 399.586 159.052C397.41 159.052 396.239 159.889 396.239 161.228C396.239 162.568 398.247 163.572 403.434 164.577C420.669 167.59 425.354 173.45 425.354 180.817C425.354 191.197 415.817 197.559 400.088 197.559C384.358 197.559 375.155 190.862 373.817 182.156H394.398Z" fill="#2B79BF"/>
<path d="M16.3186 148.425C8.71651 147.518 3.4083 143.565 1.24705 137.2C-0.0114836 133.494 -0.0136052 127.61 1.24229 124C3.43132 117.707 8.60556 113.583 15.7701 112.42C19.2559 111.854 22.2092 111.907 25.4475 112.593C34.6049 114.534 39.8331 120.926 39.8497 130.2C39.8631 137.681 36.2844 143.597 29.9655 146.542C26.3479 148.227 20.93 148.975 16.3186 148.425ZM24.1456 139.89C27.1421 137.87 28.2766 134.809 28.0401 129.382C27.9035 126.248 27.7185 125.474 26.6558 123.592C25.1076 120.85 22.9722 119.6 19.8378 119.6C14.5497 119.6 12.0241 122.937 11.9706 129.995C11.9393 134.13 12.8045 136.957 14.6285 138.678C16.5644 140.504 17.2742 140.774 20.1573 140.788C22.2539 140.797 23.0741 140.613 24.1456 139.89Z" fill="white"/>
<path d="M46.9016 130.371V112.741L59.7945 112.894C74.4819 113.068 75.326 113.219 78.3173 116.212C81.3479 119.244 81.585 123.861 78.869 126.956C78.2196 127.696 77.1338 128.531 76.4561 128.812L75.2239 129.323L77.5049 130.547C81.6493 132.773 83.0593 136.579 81.2757 140.727C79.6243 144.568 75.7228 146.955 70.0232 147.611C68.1903 147.821 62.2381 147.995 56.7961 147.997L46.9016 148V130.371ZM68.8609 140.215C70.1635 139.541 70.4886 138.887 70.4886 136.941C70.4886 133.795 69.1753 133.2 62.2335 133.2H57.2959V137V140.8H62.5129C66.3096 140.8 68.0377 140.641 68.8609 140.215ZM68.0833 125.886C70.1664 124.831 70.0174 121.443 67.8442 120.452C67.2841 120.197 64.7744 120 62.0744 120H57.2959V123.2V126.4L62.1932 126.394C65.32 126.39 67.4494 126.207 68.0833 125.886V125.886Z" fill="white"/>
<path d="M35.9389 187.3C37.5917 182.515 41.2254 171.983 44.0137 163.895L49.0835 149.19L62.4537 149.295L75.8239 149.4L83.7356 170.6C88.087 182.26 92.0076 192.745 92.4481 193.9L93.2489 196H82.506H71.7632L70.8655 192.6L69.9678 189.2H62.0802H54.1927L53.7242 191.1C53.4665 192.145 53.0784 193.675 52.8617 194.5L52.4678 196H42.7008H32.9338L35.9389 187.3ZM66.0857 176.3C66.0775 175.55 62.5663 162.34 62.3056 162.079C62.1815 161.955 61.9282 162.021 61.7426 162.227C61.4254 162.578 58.0955 175.511 58.0955 176.392C58.0955 176.642 59.641 176.8 62.0933 176.8C65.0279 176.8 66.0897 176.667 66.0857 176.3Z" fill="white"/>
<path d="M97.6736 172.6V149.2H109.204H120.735L124.949 157.9C127.267 162.685 129.839 168.085 130.665 169.9C131.49 171.715 132.321 173.2 132.51 173.2C132.699 173.2 132.854 167.8 132.854 161.2V149.2H141.649H150.444V172.6V196H139.29H128.135L127.724 194.9C126.69 192.127 115.717 168.618 115.41 168.515C115.218 168.451 115.124 174.54 115.2 182.2L115.335 196H106.504H97.6736V172.6Z" fill="white"/>
<path d="M100.072 148.381C93.1481 147.436 89.137 144.818 87.0979 139.913C86.7579 139.095 86.4797 138.24 86.4797 138.013C86.4797 137.749 88.4629 137.601 91.9767 137.602L97.4737 137.605L98.135 138.768C99.2111 140.661 100.615 141.317 104.007 141.514C107.851 141.736 109.851 141.039 110.171 139.364C110.708 136.555 109.387 135.689 102.307 134.208C92.4767 132.151 88.464 129.44 87.7882 124.4C87.1917 119.95 91.4718 115.1 97.7099 113.158C100.623 112.251 106.471 112.144 109.469 112.943C115.06 114.433 119.031 117.588 120.237 121.5L120.515 122.4H115.101H109.687L109.108 121.278C108.303 119.721 106.907 119.2 103.54 119.2C100.124 119.2 98.8729 119.842 98.8729 121.594C98.8729 123.141 100.346 124.238 103.195 124.81C117.039 127.59 121.66 130.591 121.66 136.8C121.66 141.798 117.472 146.112 111.042 147.74C107.861 148.545 103.248 148.815 100.072 148.381Z" fill="white"/>
<path d="M128.057 130.4V112.8H143.448H158.84V116.8V120.8H148.845H138.851V123.4V126H148.446H158.04V129.793V133.586L148.546 133.693L139.051 133.8L138.934 136.9L138.817 140H149.428C161.495 140 160.364 139.576 159.629 143.827C159.403 145.132 159.13 146.605 159.022 147.1L158.825 148H143.441H128.057V130.4Z" fill="white"/>
<path d="M170.433 178.8V161.6H163.437H156.441V155.4V149.2H180.628H204.814V155.4V161.6H197.618H190.422V178.8V196H180.428H170.433V178.8Z" fill="white"/>
<path d="M166.036 130.37V112.74L178.729 112.902C187.075 113.008 191.925 113.228 192.892 113.543C195.688 114.454 198.141 116.451 199.35 118.8C200.338 120.722 200.457 121.322 200.291 123.548C200.06 126.647 198.649 128.921 196.072 130.346L194.361 131.293L195.544 132.012C198.567 133.852 199.519 136.666 199.573 143.922C199.586 145.749 199.702 147.414 199.831 147.622C199.973 147.853 197.871 148 194.444 148C191.353 148 188.81 147.955 188.795 147.9C188.78 147.845 188.619 145.378 188.438 142.417C188.128 137.314 188.057 136.987 187.075 136.142C185.848 135.086 183.656 134.703 179.828 134.875L177.03 135L176.92 141.5L176.81 148H171.423H166.036V130.37ZM187.005 127.434C187.75 127.123 188.554 126.504 188.791 126.06C189.445 124.838 189.309 122.593 188.523 121.642C187.624 120.554 184.262 119.928 180.145 120.083L177.03 120.2L176.915 124.1L176.801 128H181.226C184.137 128 186.114 127.806 187.005 127.434L187.005 127.434Z" fill="white"/>
<path d="M216.13 147.31C215.913 146.721 203.563 114.904 202.924 113.289C202.764 112.886 203.998 112.802 208.809 112.889L214.895 113L217.846 122C220.567 130.298 221.633 133.808 222.795 138.3C223.037 139.235 223.38 140 223.556 140C223.732 140 224.1 139.002 224.373 137.782C224.646 136.562 225.641 133.277 226.584 130.482C227.528 127.687 229.158 122.565 230.207 119.1L232.114 112.8H238.05H243.986L243.395 114.3C243.07 115.125 239.947 123 236.454 131.8L230.103 147.8L223.247 147.91C216.988 148.009 216.368 147.957 216.13 147.31V147.31Z" fill="white"/>
<path d="M203.65 186.7C205.413 181.585 209.041 171.053 211.714 163.295L216.573 149.19L229.939 149.295L243.306 149.4L251.844 172C256.54 184.43 260.485 194.915 260.61 195.3C260.823 195.955 260.145 196 250.064 196H239.29L238.822 194.1C238.564 193.055 238.176 191.525 237.96 190.7L237.566 189.2H229.633H221.7L221.232 191.1C220.974 192.145 220.586 193.675 220.369 194.5L219.975 196H210.211H200.446L203.65 186.7ZM233.599 176.377C233.599 175.889 231.444 167.221 230.547 164.1C230.215 162.945 229.732 162.004 229.473 162.008C229.195 162.013 228.26 165.048 227.194 169.408L225.388 176.8H229.493C232.115 176.8 233.599 176.647 233.599 176.377Z" fill="white"/>
<path d="M240.787 147.711C240.784 147.54 243.706 139.616 247.284 130.102L253.787 112.804L261.117 112.902L268.447 113L275.179 129.69C278.882 138.869 282.029 146.749 282.172 147.201C282.428 148.007 282.324 148.02 276.551 147.911L270.669 147.8L269.469 144.491L268.269 141.182L261.062 141.291L253.854 141.4L252.788 144.6L251.722 147.8L246.258 147.911C243.253 147.973 240.791 147.883 240.787 147.711V147.711ZM265.581 133.344C265.581 133.202 264.546 130.054 263.282 126.347C261.211 120.274 260.384 118.512 260.384 120.173C260.384 120.488 259.484 123.525 258.385 126.922C257.285 130.32 256.386 133.212 256.386 133.35C256.386 133.487 258.455 133.6 260.983 133.6C263.512 133.6 265.581 133.485 265.581 133.344Z" fill="white"/>
<path d="M265.181 172.566V149.132L283.671 149.299C303.384 149.478 304.097 149.544 308.497 151.614C315.491 154.903 318.002 163.161 313.895 169.364C312.87 170.912 311.464 172.083 308.554 173.811C307.956 174.166 308.125 174.385 309.809 175.435C313.512 177.743 314.292 180.3 314.891 192.1L315.09 196H305.55C298.629 196 295.931 195.87 295.719 195.526C295.558 195.265 295.299 192.16 295.145 188.626C294.99 185.092 294.73 181.878 294.566 181.485C294.01 180.152 292.201 179.6 288.388 179.6H284.77V187.8V196H274.976H265.181V172.566ZM295 167.478C295.645 166.727 295.964 165.863 295.964 164.867C295.964 161.765 294.148 160.806 288.268 160.802L284.77 160.8V164.835V168.869L289.403 168.734C293.911 168.604 294.062 168.57 295 167.478V167.478Z" fill="white"/>
<path d="M290.767 134.4V120.8H284.97H279.173V116.8V112.8H296.364H313.554V116.8V120.8H307.758H301.961V134.4V148H296.364H290.767V134.4Z" fill="white"/>
<path d="M332.344 148.399C327.455 147.802 323.037 145.676 320.533 142.713C318.736 140.587 317.181 136.802 316.674 133.324C315.611 126.027 318.615 118.864 324.242 115.277C330.349 111.384 340.094 111.01 346.999 114.404C359.416 120.506 359.148 140.459 346.571 146.364C342.535 148.258 337.316 149.005 332.344 148.399ZM340.193 140.033C343.108 138.254 344.413 135.228 344.394 130.289C344.373 125.076 342.913 121.937 339.811 120.434C336.039 118.607 331.45 119.786 329.655 123.043C327.966 126.106 327.683 132.416 329.073 136.023C329.671 137.576 331.56 139.643 332.924 140.237C334.797 141.054 338.7 140.944 340.193 140.033Z" fill="white"/>
<path d="M323.149 172.6V149.2H345.537H367.924V155.4V161.6H355.331H342.738V164V166.4H354.732H366.725V172.6V178.8H354.732H342.738V181.4V184H356.131C366.234 184 369.524 184.117 369.524 184.477C369.524 184.739 369.035 187.439 368.439 190.477L367.354 196H345.251H323.149V172.6Z" fill="white"/>
<path d="M391.711 196.631C383.762 195.095 377.75 191.152 375.286 185.856C373.567 182.163 372.95 182.4 384.267 182.4H394.213L394.729 183.647C395.439 185.362 397.281 186.397 399.627 186.398C402.997 186.402 404.752 184.83 403.896 182.576C403.367 181.185 401.691 180.5 395.187 179.015C380.876 175.748 375.861 171.819 375.809 163.835C375.771 157.891 378.303 154.014 384.051 151.215C388.479 149.058 392.318 148.353 399.494 148.376C409.616 148.41 415.937 150.342 419.815 154.588C421.758 156.715 423.094 159.52 423.094 161.471V162.4H413.797H404.5L403.965 161.191C402.753 158.452 397.64 157.911 396.319 160.381C395.266 162.349 397.229 163.437 404.67 165.009C419.64 168.171 425.486 172.958 425.001 181.655C424.61 188.669 419.518 193.849 410.701 196.203C407.208 197.135 395.668 197.395 391.711 196.631Z" fill="white"/>
<path d="M363.127 130.37V112.74L375.62 112.891C389.634 113.06 390.836 113.26 393.963 115.938C398.097 119.479 398.237 126.032 394.25 129.389C393.538 129.988 392.514 130.647 391.975 130.852C391.007 131.22 391.018 131.24 392.781 132.359C395.679 134.198 396.109 135.516 396.472 143.7L396.664 148H391.141H385.619L385.371 146.5C385.235 145.675 385.122 143.542 385.119 141.76C385.114 138.035 384.595 136.18 383.374 135.52C382.902 135.266 380.582 134.976 378.219 134.877L373.921 134.697V141.349V148H368.524H363.127V130.37ZM384.901 126.813C385.802 125.966 385.934 125.549 385.832 123.854C385.651 120.812 384.757 120.337 378.748 120.089L373.921 119.89V123.986V128.082L378.886 127.941C383.516 127.81 383.923 127.733 384.901 126.813Z" fill="white"/>
<path d="M335.377 105.8L339.256 102.4H345.284H351.311L345.725 105.794L340.14 109.188L335.819 109.194L331.498 109.2L335.377 105.8Z" fill="white"/>
<path d="M403.905 130.4V112.8H409.501H415.098V130.4V148H409.501H403.905V130.4Z" fill="white"/>
<path d="M438.086 148.42C433.27 147.849 428.515 145.601 426.115 142.76C423.045 139.128 421.463 132.812 422.283 127.468C423.681 118.357 430.117 112.85 440.185 112.147C451.741 111.34 459.993 117.18 461.535 127.259C463.011 136.905 457.483 145.558 448.438 147.761C445.38 148.505 441.102 148.778 438.086 148.42ZM445.888 140.058C450.482 137.61 451.567 127.581 447.81 122.301C446.017 119.782 441.348 118.862 438.024 120.372C436.839 120.91 436.038 121.681 435.229 123.063C434.213 124.798 434.079 125.445 433.948 129.267C433.839 132.459 433.966 134.028 434.454 135.497C435.074 137.367 436.752 139.38 438.485 140.335C439.817 141.069 444.306 140.9 445.888 140.058Z" fill="white"/>
</g>
<defs>
<clipPath id="clip0">
<rect width="462" height="332" fill="white"/>
</clipPath>
</defs>
</svg>
